<svg width="20.000000" height="20.000000" viewBox="0 0 20 20" fill="none" xmlns="http://www.w3.org/2000/svg" xmlns:xlink="http://www.w3.org/1999/xlink">
	<desc>
			Created with Pixso.
	</desc>
	<defs/>
	<path d="M13.75 0L6.25 0C2.79883 0 0 2.79874 0 6.25L0 13.75C0 17.2013 2.79883 20 6.25 20L13.75 20C17.2012 20 20 17.2013 20 13.75L20 6.25C20 2.79874 17.2012 0 13.75 0ZM18.125 13.75C18.125 16.1625 16.1626 18.125 13.75 18.125L6.25 18.125C3.8374 18.125 1.875 16.1625 1.875 13.75L1.875 6.25C1.875 3.83749 3.8374 1.875 6.25 1.875L13.75 1.875C16.1626 1.875 18.125 3.83749 18.125 6.25L18.125 13.75Z" fill="#000000" fill-opacity="1.000000" fill-rule="nonzero"/>
	<path d="M10 5C7.23877 5 5 7.23874 5 10C5 12.7613 7.23877 15 10 15C12.7612 15 15 12.7613 15 10C15 7.23874 12.7612 5 10 5ZM10 13.125C8.27759 13.125 6.875 11.7225 6.875 10C6.875 8.27625 8.27759 6.875 10 6.875C11.7224 6.875 13.125 8.27625 13.125 10C13.125 11.7225 11.7224 13.125 10 13.125Z" fill="#000000" fill-opacity="1.000000" fill-rule="nonzero"/>
	<path d="M16.0413 4.625C16.0413 4.99295 15.7429 5.29123 15.375 5.29123C15.0071 5.29123 14.7087 4.99295 14.7087 4.625C14.7087 4.25702 15.0071 3.95874 15.375 3.95874C15.7429 3.95874 16.0413 4.25702 16.0413 4.625Z" fill="#000000" fill-opacity="1.000000" fill-rule="evenodd"/>
</svg>
