<svg width="30.000000" height="30.000000" viewBox="0 0 30 30" fill="none" xmlns="http://www.w3.org/2000/svg" xmlns:xlink="http://www.w3.org/1999/xlink">
	<desc>
			Created with Pixso.
	</desc>
	<defs/>
	<path d="M0 9.375L0 20.625C0 25.8018 4.19812 30 9.375 30L20.625 30C25.8019 30 30 25.8018 30 20.625L30 9.375C30 4.19824 25.8019 0 20.625 0L9.375 0C4.19812 0 0 4.19824 0 9.375ZM20.625 2.8125C24.2438 2.8125 27.1875 5.75635 27.1875 9.375L27.1875 20.625C27.1875 24.2437 24.2438 27.1875 20.625 27.1875L9.375 27.1875C5.75623 27.1875 2.8125 24.2437 2.8125 20.625L2.8125 9.375C2.8125 5.75635 5.75623 2.8125 9.375 2.8125L20.625 2.8125Z" fill="#000000" fill-opacity="1.000000" fill-rule="nonzero"/>
	<path d="M7.5 15C7.5 19.1421 10.8582 22.5 15 22.5C19.1418 22.5 22.5 19.1421 22.5 15C22.5 10.8579 19.1418 7.5 15 7.5C10.8581 7.5 7.5 10.8579 7.5 15ZM19.6875 15C19.6875 17.584 17.5837 19.6875 15 19.6875C12.4144 19.6875 10.3125 17.584 10.3125 15C10.3125 12.416 12.4144 10.3125 15 10.3125C17.5837 10.3125 19.6875 12.416 19.6875 15Z" fill="#000000" fill-opacity="1.000000" fill-rule="nonzero"/>
	<path d="M6.9375 5.93799C7.48944 5.93799 7.93683 6.38525 7.93683 6.93701C7.93683 7.48926 7.48944 7.93652 6.9375 7.93652C6.38556 7.93652 5.93811 7.48926 5.93811 6.93701C5.93811 6.38525 6.38556 5.93799 6.9375 5.93799Z" fill="#000000" fill-opacity="1.000000" fill-rule="evenodd"/>
</svg>
