<svg width="20.000000" height="19.000000" viewBox="0 0 20 19" fill="none" xmlns="http://www.w3.org/2000/svg" xmlns:xlink="http://www.w3.org/1999/xlink">
	<desc>
			Created with Pixso.
	</desc>
	<defs/>
	<path d="M10 0C4.4751 0 0 4.36166 0 9.74106C0 14.0457 2.86499 17.6962 6.8374 18.9832C7.3374 19.0749 7.52075 18.7734 7.52075 18.5148C7.52075 18.2835 7.51245 17.6706 7.5083 16.8585C4.72656 17.4459 4.13989 15.5517 4.13989 15.5517C3.68506 14.4274 3.02759 14.1267 3.02759 14.1267C2.12158 13.5228 3.09741 13.5352 3.09741 13.5352C4.10156 13.603 4.62915 14.5389 4.62915 14.5389C5.52075 16.0283 6.96997 15.5979 7.54175 15.3493C7.63159 14.719 7.88916 14.2903 8.17505 14.0466C5.9541 13.8029 3.62012 12.9652 3.62012 9.23303C3.62012 8.16989 4.00757 7.30084 4.64917 6.61932C4.53662 6.37317 4.19922 5.38269 4.73657 4.04117C4.73657 4.04117 5.57422 3.78012 7.48657 5.03989C8.28662 4.82346 9.13672 4.71606 9.98657 4.71109C10.8367 4.71606 11.6868 4.82346 12.4866 5.03989C14.3867 3.78012 15.2241 4.04117 15.2241 4.04117C15.7617 5.38269 15.4241 6.37317 15.3242 6.61932C15.9617 7.30084 16.3491 8.16989 16.3491 9.23303C16.3491 12.9752 14.0117 13.7987 11.7866 14.0383C12.1367 14.3307 12.4617 14.928 12.4617 15.8408C12.4617 17.1443 12.4492 18.1918 12.4492 18.5082C12.4492 18.7635 12.6243 19.0683 13.1367 18.9708C17.1375 17.692 20 14.0391 20 9.74106C20 4.36166 15.5225 0 10 0Z" fill="#212121" fill-opacity="1.000000" fill-rule="nonzero"/>
</svg>
